#!OML:ASF H:\Male1\Project 1\Capture day 1\Session 1\Male1.ASF
:FULLY-SPECIFIED
:DEGREES
415
root 22.1446 15.6771 1.49192 187.021 -82.142 -190.594
lowerback 13.8388 2.31394 -5.90217
upperback 7.40229 1.83731 -2.25977
thorax -0.0594288 0.594059 0.706098
lowerneck -9.29316 4.37012 8.20146
upperneck 21.3453 4.90401 -3.36194
head 8.46632 2.4933 -2.02196
rclavicle -1.96797e-014 -1.11319e-014
rhumerus -30.7389 7.17611 -87.9249
rradius 41.9859
rwrist -21.8496
rhand -15.2291 0.215921
rfingers 7.12502
rthumb 10.9438 -29.4789
lclavicle -1.96797e-014 -1.11319e-014
lhumerus -27.7221 -0.455859 84.5229
lradius 30.0585
lwrist -1.488
lhand -18.819 9.92952
lfingers 7.12502
lthumb 7.47987 39.7773
rfemur -56.2886 1.06559 24.4116
rtibia 98.8792
rfoot -18.8668 -18.0524
rtoes -30.8591
lfemur 12.3054 -13.6747 -29.1339
ltibia -2.70347e-014
lfoot -9.16134 18.7371
ltoes -3.44725
416
root 22.0907 15.6962 1.49737 185.657 -82.2921 -189.545
lowerback 14.4072 2.27802 -5.86527
upperback 7.58612 1.73856 -2.09673
thorax -0.165835 0.533396 0.857589
lowerneck -9.24665 4.37893 8.27172
upperneck 21.0941 4.93153 -3.44571
head 8.3784 2.50573 -2.05842
rclavicle -2.26615e-014 -5.64548e-014
rhumerus -30.5882 7.23489 -87.6196
rradius 42.0917
rwrist -21.9436
rhand -15.3678 0.0937379
rfingers 7.12502
rthumb 10.81 -29.6081
lclavicle -2.26615e-014 -5.64548e-014
lhumerus -27.6367 -0.734911 84.8034
lradius 30.4305
lwrist -1.0552
lhand -18.8561 10.2553
lfingers 7.12502
lthumb 7.4441 40.1043
rfemur -59.2074 1.09635 24.8779
rtibia 100.81
rfoot -18.6425 -17.2765
rtoes -31.5577
lfemur 12.8698 -13.5919 -29.1295
ltibia 3.18055e-014
lfoot -9.15992 18.6391
ltoes -3.38576
417
root 22.0304 15.7103 1.50139 184.128 -82.4779 -188.352
lowerback 14.9655 2.23249 -5.80464
upperback 7.77664 1.63181 -1.92576
thorax -0.2571 0.468398 1.00731
lowerneck -9.20091 4.38399 8.34836
upperneck 20.8535 4.95224 -3.53008
head 8.29432 2.51529 -2.09685
rclavicle 1.98785e-016 1.35174e-014
rhumerus -30.4384 7.30466 -87.3242
rradius 42.1766
rwrist -22.0093
rhand -15.5287 -0.00148445
rfingers 7.12502
rthumb 10.6548 -29.7113
lclavicle 1.98785e-016 1.35174e-014
lhumerus -27.5797 -1.05869 85.0891
lradius 30.845
lwrist -0.628245
lhand -18.861 10.4072
lfingers 7.12502
lthumb 7.43935 40.2564
rfemur -61.7661 1.06768 25.3707
rtibia 102.072
rfoot -18.4365 -16.5912
rtoes -32.3883
lfemur 13.4925 -13.5417 -29.1187
ltibia 2.06736e-014
lfoot -9.19962 18.5577
ltoes -3.39433
418
root 21.9641 15.7207 1.50402 182.388 -82.6803 -186.94
lowerback 15.4846 2.1813 -5.72623
upperback 7.96123 1.52517 -1.74274
thorax -0.331966 0.403706 1.16224
lowerneck -9.15943 4.38868 8.43976
upperneck 20.6379 4.97357 -3.63704
head 8.22069 2.52399 -2.14523
rclavicle -1.37161e-014 -2.38542e-015
rhumerus -30.2982 7.38101 -87.0298
rradius 42.2382
rwrist -22.0781
rhand -15.6358 -0.0412144
rfingers 7.12502
rthumb 10.5515 -29.7564
lclavicle -1.37161e-014 -2.38542e-015
lhumerus -27.5402 -1.42513 85.3857
lradius 31.2881
lwrist -0.221022
lhand -18.832 10.5487
lfingers 7.12502
lthumb 7.46732 40.3969
rfemur -63.9383 0.987067 25.8982
rtibia 102.677
rfoot -18.2622 -16.1111
rtoes -33.3797
lfemur 14.1377 -13.5112 -29.0874
ltibia 3.97569e-014
lfoot -9.30583 18.4737
ltoes -3.41173
419
root 21.8917 15.7276 1.50538 180.501 -82.8815 -185.351
lowerback 15.9402 2.13355 -5.63673
upperback 8.12934 1.4323 -1.55232
thorax -0.390081 0.346742 1.31916
lowerneck -9.11022 4.3815 8.52432
upperneck 20.4504 4.97906 -3.74306
head 8.15401 2.52459 -2.19406
rclavicle -9.34288e-015 -3.18055e-015
rhumerus -30.1914 7.44869 -86.7327
rradius 42.2885
rwrist -22.172
rhand -15.6522 -0.0243326
rfingers 7.12502
rthumb 10.5356 -29.7403
lclavicle -9.34288e-015 -3.18055e-015
lhumerus -27.5025 -1.84257 85.6952
lradius 31.7347
lwrist 0.162977
lhand -18.7714 10.7403
lfingers 7.12502
lthumb 7.52581 40.5864
rfemur -65.7139 0.873676 26.4454
rtibia 102.67
rfoot -18.1748 -15.7333
rtoes -34.3579
lfemur 14.7767 -13.4885 -29.0391
ltibia 4.29375e-014
lfoot -9.48054 18.3811
ltoes -3.41529
420
root 21.8137 15.7316 1.50577 178.508 -83.0706 -183.62
lowerback 16.3259 2.09693 -5.52983
upperback 8.27901 1.36454 -1.36208
thorax -0.431175 0.303664 1.46434
lowerneck -9.06032 4.35228 8.59348
upperneck 20.305 4.95185 -3.83093
head 8.09833 2.50995 -2.23789
rclavicle 1.33186e-014 4.77083e-015
rhumerus -30.139 7.48634 -86.4348
rradius 42.3505
rwrist -22.2883
rhand -15.5774 0.0393235
rfingers 7.12502
rthumb 10.6078 -29.6729
lclavicle 1.33186e-014 4.77083e-015
lhumerus -27.4641 -2.31575 86.0151
lradius 32.1704
lwrist 0.52787
lhand -18.6565 11.2009
lfingers 7.12502
lthumb 7.63672 41.043
rfemur -67.0655 0.744689 26.9912
rtibia 102.105
rfoot -18.1654 -15.4189
rtoes -35.2398
lfemur 15.4002 -13.4648 -28.979
ltibia 4.6118e-014
lfoot -9.71702 18.2779
ltoes -3.3089
421
root 21.7302 15.7332 1.50527 176.346 -83.2397 -181.683
lowerback 16.634 2.07123 -5.3974
upperback 8.41226 1.32348 -1.16947
thorax -0.449673 0.275405 1.59516
lowerneck -9.02537 4.31135 8.65283
upperneck 20.2066 4.90538 -3.90557
head 8.05923 2.48637 -2.27759
rclavicle 7.35503e-015 -1.27222e-014
rhumerus -30.144 7.50169 -86.1392
rradius 42.4408
rwrist -22.4207
rhand -15.4326 0.126221
rfingers 7.12502
rthumb 10.7475 -29.5788
lclavicle 7.35503e-015 -1.27222e-014
lhumerus -27.4313 -2.8182 86.3412
lradius 32.6007
lwrist 0.883664
lhand -18.62 11.375
lfingers 7.12502
lthumb 7.67194 41.2159
rfemur -67.9769 0.613147 27.5265
rtibia 101.05
rfoot -18.1939 -15.1638
rtoes -36.0385
lfemur 16 -13.4348 -28.8959
ltibia -4.77083e-015
lfoot -10.0006 18.1705
ltoes -2.9698
422
root 21.6417 15.7323 1.50376 174.001 -83.3776 -179.519
lowerback 16.862 2.05429 -5.24156
upperback 8.53069 1.30591 -0.972803
thorax -0.443046 0.260226 1.71466
lowerneck -8.991 4.25379 8.66646
upperneck 20.1316 4.8358 -3.94419
head 8.02422 2.45156 -2.30019
rclavicle 5.1684e-015 -1.98785e-014
rhumerus -30.1996 7.51622 -85.8529
rradius 42.5686
rwrist -22.5604
rhand -15.2564 0.201821
rfingers 7.12502
rthumb 10.9174 -29.4944
lclavicle 5.1684e-015 -1.98785e-014
lhumerus -27.4094 -3.30917 86.6614
lradius 33.0417
lwrist 1.22717
lhand -18.862 10.9894
lfingers 7.12502
lthumb 7.43834 40.8386
rfemur -68.4643 0.490852 28.0412
rtibia 99.5984
rfoot -18.221 -14.9424
rtoes -36.699
lfemur 16.5701 -13.3904 -28.7832
ltibia -1.90833e-014
lfoot -10.3172 18.0652
ltoes -2.4231
423
root 21.5489 15.7282 1.50106 171.76 -83.4826 -177.411
lowerback 17.0099 2.04456 -5.09817
upperback 8.63369 1.30381 -0.778594
thorax -0.411983 0.253219 1.83721
lowerneck -8.97183 4.19377 8.65811
upperneck 20.0759 4.76492 -3.98082
head 7.99756 2.41456 -2.31842
rclavicle -6.36111e-015 -9.54166e-015
rhumerus -30.2783 7.54012 -85.58
rradius 42.7187
rwrist -22.6837
rhand -15.0788 0.253289
rfingers 7.12502
rthumb 11.0888 -29.4338
lclavicle -6.36111e-015 -9.54166e-015
lhumerus -27.4009 -3.74765 86.966
lradius 33.502
lwrist 1.55489
lhand -19.3428 10.2576
lfingers 7.12502
lthumb 6.97429 40.1227
rfemur -68.5875 0.382004 28.4909
rtibia 97.8725
rfoot -18.2229 -14.7325
rtoes -37.1102
lfemur 17.1008 -13.329 -28.6691
ltibia -1.59028e-014
lfoot -10.6746 17.9518
ltoes -1.73407
424
root 21.4523 15.7208 1.49698 169.95 -83.5631 -175.674
lowerback 17.0721 2.03935 -4.99846
upperback 8.71861 1.30872 -0.5985
thorax -0.356334 0.249629 1.96949
lowerneck -8.96077 4.14313 8.64888
upperneck 20.0156 4.70953 -4.03021
head 7.97212 2.38372 -2.33894
rclavicle -7.55382e-015 3.18055e-015
rhumerus -30.3483 7.57098 -85.3282
rradius 42.8627
rwrist -22.7707
rhand -14.928 0.270764
rfingers 7.12502
rthumb 11.2342 -29.4084
lclavicle -7.55382e-015 3.18055e-015
lhumerus -27.4111 -4.12139 87.2454
lradius 33.9826
lwrist 1.88197
lhand -19.7229 9.66105
lfingers 7.12502
lthumb 6.60733 39.538
rfemur -68.4215 0.29664 28.8288
rtibia 95.9981
rfoot -18.2068 -14.535
rtoes -37.1695
lfemur 17.5805 -13.2533 -28.5835
ltibia -4.77083e-015
lfoot -11.0799 17.8308
ltoes -1.01123
425
root 21.3523 15.7094 1.49125 168.774 -83.6299 -174.504
lowerback 17.05 2.03471 -4.95232
upperback 8.77959 1.31355 -0.447362
thorax -0.282543 0.246366 2.10252
lowerneck -8.929 4.09931 8.64323
upperneck 19.9258 4.6656 -4.08291
head 7.93407 2.3585 -2.36008
rclavicle -1.39149e-015 7.95139e-016
rhumerus -30.398 7.59548 -85.1114
rradius 42.9856
rwrist -22.8161
rhand -14.8167 0.259423
rfingers 7.12502
rthumb 11.3416 -29.4139
lclavicle -1.39149e-015 7.95139e-016
lhumerus -27.4474 -4.43341 87.4826
lradius 34.4817
lwrist 2.20672
lhand -20.294 8.68633
lfingers 7.12502
lthumb 6.05602 38.5798
rfemur -68.0519 0.262239 29.0238
rtibia 94.1031
rfoot -18.1714 -14.3668
rtoes -36.7209
lfemur 18.0032 -13.167 -28.5446
ltibia -5.725e-014
lfoot -11.533 17.7196
ltoes -0.442157
